<?xml version="1.0" encoding="UTF-8"?>
<svg xmlns="http://www.w3.org/2000/svg" viewBox="0 0 687.73 714.39">
  <defs>
    <style>
      .cls-1 {
        fill: #2c4c81;
        fill-rule: evenodd;
      }
    </style>
  </defs>
  <g id="Layer_1" data-name="Layer 1" shape-rendering="geometricPrecision">
    <path class="cls-1" d="M2.57,285.57c8.66-54.72,24.22-105.39,56.04-151.42C144.78,9.51,316.56-31.3,454.54,24.46c36.4,14.71,69.39,37.92,97.88,64.69,86.42,81.18,116.44,213.71,87.03,326.45-11.3,43.31-29.22,87.72-57.51,122.9,12.68,7.67,22.9,22.61,33.25,33.18,23.78,24.31,47.13,49.47,72.54,72.09-5.6,9.18-16.73,17.08-24.35,24.65-15.46,15.36-30.39,31.37-46.57,45.97-6.28-2.36-12.06-11.37-16.87-16.11-14.13-13.94-28.45-27.68-42.58-41.61-48.32-47.59-98-93.89-147.15-140.61-15.02-14.28-29.69-28.95-44.56-43.38-5.71-5.54-16.76-13.46-19.03-20.98,21.88-25.71,44.92-51.47,68.37-75.78,10.42,6.92,18.68,17.24,27.52,26.05,19.19,19.12,37.58,38.92,56.32,58.4,7.56-6.48,13.38-20.44,17.73-29.38,14.86-30.53,22.87-64.01,23.38-97.96.56-36.96-6.54-74.88-23.28-108.07-33.91-67.19-100.7-111.68-175.67-117.22-26.61-1.97-52.92,1.44-78.53,8.64-51.31,14.44-95.64,49.06-122.57,95.03-48.76,83.21-38.67,201.33,29.7,271.04,44.6,45.48,107.4,68.28,170.76,64.6,17.69-1.02,33.28-8,50.42-10.32,5.67,8.19,14.3,15.05,21.54,21.86,15.33,14.43,30.79,28.72,46.11,43.15,6.02,5.68,13.97,10.9,18.87,17.53-29.34,17.52-65.12,26.04-98.47,31.64-134.57,22.55-278.33-42.42-341.69-164.94C5.83,425.45-5.64,353.12,2.57,285.57Z"/>
  </g>
</svg>