<?xml version="1.0" encoding="UTF-8"?>
<svg xmlns="http://www.w3.org/2000/svg" viewBox="0 0 3140.32 714.39">
  <defs>
    <style>
      .cls-1 {
        fill: #2a4d85;
      }

      .cls-1, .cls-2, .cls-3, .cls-4, .cls-5, .cls-6, .cls-7, .cls-8, .cls-9 {
        fill-rule: evenodd;
      }

      .cls-2 {
        fill: #2a4c85;
      }

      .cls-3 {
        fill: #2c4d83;
      }

      .cls-4 {
        fill: #2b4d86;
      }

      .cls-5 {
        fill: #2b4c86;
      }

      .cls-6 {
        fill: #2a4b83;
      }

      .cls-7 {
        fill: #2b4d84;
      }

      .cls-8 {
        fill: #2d4e86;
      }

      .cls-9 {
        fill: #2c4c81;
      }
    </style>
  </defs>
  <g id="Layer_1" data-name="Layer 1" shape-rendering="geometricPrecision">
    <path class="cls-9" d="M2.57,285.57c8.66-54.72,24.22-105.39,56.04-151.42C144.78,9.51,316.56-31.3,454.54,24.46c36.4,14.71,69.39,37.92,97.88,64.69,86.42,81.18,116.44,213.71,87.03,326.45-11.3,43.31-29.22,87.72-57.51,122.9,12.68,7.67,22.9,22.61,33.25,33.18,23.78,24.31,47.13,49.47,72.54,72.09-5.6,9.18-16.73,17.08-24.35,24.65-15.46,15.36-30.39,31.37-46.57,45.97-6.28-2.36-12.06-11.37-16.87-16.11-14.13-13.94-28.45-27.68-42.58-41.61-48.32-47.59-98-93.89-147.15-140.61-15.02-14.28-29.69-28.95-44.56-43.38-5.71-5.54-16.76-13.46-19.03-20.98,21.88-25.71,44.92-51.47,68.37-75.78,10.42,6.92,18.68,17.24,27.52,26.05,19.19,19.12,37.58,38.92,56.32,58.4,7.56-6.48,13.38-20.44,17.73-29.38,14.86-30.53,22.87-64.01,23.38-97.96.56-36.96-6.54-74.88-23.28-108.07-33.91-67.19-100.7-111.68-175.67-117.22-26.61-1.97-52.92,1.44-78.53,8.64-51.31,14.44-95.64,49.06-122.57,95.03-48.76,83.21-38.67,201.33,29.7,271.04,44.6,45.48,107.4,68.28,170.76,64.6,17.69-1.02,33.28-8,50.42-10.32,5.67,8.19,14.3,15.05,21.54,21.86,15.33,14.43,30.79,28.72,46.11,43.15,6.02,5.68,13.97,10.9,18.87,17.53-29.34,17.52-65.12,26.04-98.47,31.64-134.57,22.55-278.33-42.42-341.69-164.94C5.83,425.45-5.64,353.12,2.57,285.57Z"/>
    <path class="cls-8" d="M718.07,260.64c24.38.08,48.74.53,73.12-.06.1,42.22.05,84.45.11,126.67.03,22.66-2.21,48.54,10.31,68.63,25.03,40.19,89.45,33.2,110.54-7.3,11.67-22.41,9.34-49.19,9.39-73.62.07-37.89,2.53-76.81-.56-114.58,23.57-.97,48.09-.82,71.69.14,2.06,6.75.28,16.4.28,23.52,0,18.02-.03,36.04-.05,54.06-.03,44.23.12,88.45.07,132.67-.02,23.32-2.03,47.69.28,70.88-6.58,1.99-16.9.05-23.83-.06-15.31-.25-30.78-.58-45.99,1.18-1.83-2.49-.52-7.26-.37-10.29.46-9.14.5-18.46,0-27.58-6.7,4.1-11.51,11.96-17.62,17.07-11.39,9.54-25.26,16.26-39.61,19.99-15.93,4.14-32.32,5.12-48.66,3.47-48.5-4.9-85.43-39.34-94.9-87-3.82-19.23-2.88-39.38-2.96-58.88-.18-45.7,3.7-93.47-1.24-138.9Z"/>
    <path class="cls-5" d="M1062.16,171.46c8.63-56.94,99.49-42.9,90.38,14.25-8.63,54.16-98.64,40.25-90.38-14.25Z"/>
    <path class="cls-7" d="M1071.14,260.58c23.79.28,47.7-.59,71.46.13-1.57,18.95.02,38.71.02,57.75,0,39.31,0,78.62.06,117.93.03,23.75-.02,47.5.02,71.25.02,10.78-1.7,23.45.18,33.95-23.14,3.22-47.6-2.2-70.98.41-2.96-6.57-.74-17.3-.74-24.53,0-18.84.06-37.68.06-56.51.01-66.63,2.61-133.81-.09-200.38Z"/>
    <path class="cls-1" d="M1197.6,385.29c2.97-19.72,7.42-39.22,17.18-56.88,27.64-49.96,85.72-75.73,141.63-73.67,33.27,1.23,64.85,12.31,90.44,33.71,6.31,5.28,11.93,11.29,17.41,17.41.89.99,5.94,5.68,5.02,6.57-11.82,7.65-23.85,15.94-34.57,25.09-4.61,3.94-11.54,12.84-17.31,14.52-13.65-14.99-26.64-27.22-47.48-31.42-15.02-3.02-31.36-3.07-46.04,1.72-13.73,4.48-27.29,12.39-35.88,24.28-22.2,30.76-26.93,74.25-2.88,105.82,32.07,42.11,102.31,42.08,131.47-3.18,5.46,1.35,10,7.42,14.62,10.66,12.35,8.64,27.59,17.31,38.1,28.14-43.71,71.21-157.5,74.23-218.69,27.13-39.42-30.34-58.5-80.79-53.04-129.9Z"/>
    <path class="cls-4" d="M1513.82,153.21c23.12.83,46.32-.72,69.43.3,2.81,20.9.87,43.1.91,64.2.07,37.68.57,75.35.86,113.02.13,16.69-2.03,35.44.39,51.88,4.51-2.64,7.57-7.96,11.16-11.73,8.65-9.09,17.49-18.02,26.31-26.95,27.93-28.27,56.63-55.71,84.17-84.34,8.28-1.99,19.15.07,27.72.09,19.23.04,38.56-.75,57.78-.36-4.54,11.74-21.31,23.61-29.94,32.93-25.05,27.09-51.2,56.6-79.79,79.96,25.73,36.63,52.09,72.94,78.06,109.43,14,19.68,26.73,43.01,43.94,59.96-7.07,1.76-17.75-.6-25.21-.64-20.16-.12-40.47-.62-60.57.78-22.79-28.01-43.67-59.85-63.63-89.99-5.12-7.72-10.53-15.21-16.04-22.65-1.69-2.28-3.33-6.74-6.21-6.5-13.15,20.04-34.49,33.12-48.72,52.09.43,21.92-1.78,45.14.76,66.88-23.15-.39-47.85-2.62-70.77.84-2.73-83.53-.9-167.43-1.03-251-.04-30.3-.03-60.6,0-90.91.01-15.42-1.8-32.04.39-47.29Z"/>
    <path class="cls-2" d="M1840.83,260.57c23.12-.59,47.17-.95,70.26.44.98,11.51-.13,23.95-.69,35.49,4.1-1.72,7.46-6.99,10.64-10.15,5.66-5.61,12.13-10.79,18.94-14.93,25.72-15.65,61.28-19.37,90.46-13.7,37.46,7.27,69.89,29.32,89.92,61.86,33.25,54.03,27.01,136.12-16.3,183.24-34.01,37-85.49,51.74-134.27,40.13-15.12-3.6-29.4-10.82-41.29-20.78-2.76-2.31-15.31-16.27-17.23-14.86,4.13,31.19-.09,63.23,1.88,94.61.49,7.83.37,15.8.44,23.65.01,1.76.69,8.22-.53,9.38-23.68-.93-47.94-1.71-71.58-.14-2.87-1.64-.87-17.75-.85-21.53.11-22.94.23-45.88.23-68.82-.01-63.88.48-127.77.38-191.65-.05-30.42,2.41-61.97-.4-92.25ZM1912.77,390.27c-3.17,32.54,9.23,66.82,37.97,84.32,28.48,17.35,72.67,11.49,95.7-12.71,12.83-13.49,19.79-32.14,21.67-50.41,2.77-27-5.64-59.13-27.32-76.88-27.44-22.46-71.23-23.58-99.15-1.2-16.59,13.29-26.83,36.01-28.86,56.89Z"/>
    <path class="cls-6" d="M2177.88,449.13c2.58-12.68,6.51-24.37,13.45-35.41,12.78-20.32,34.81-29.53,57.37-34.21,39.48-8.17,81.63-5.38,121.72-5.19.05-6.52-.91-13.24-2.73-19.53-13.22-45.7-73.88-42.06-110.53-32.05-9.25,2.53-18.57,5.77-27.12,10.15-3.85,1.97-9.83,7.49-14.17,6.84-6.52-17.76-15.98-34.32-23.68-51.56,3.78-4.78,10.76-7.07,16.12-9.67,14.71-7.13,30.2-12.87,46.21-16.3,60.59-12.99,144.36-11.2,175.3,53.35,13,27.13,12.48,57.12,12.48,86.5,0,45.99-3.46,93.29.04,139.14-22.71-1.15-45.37-.04-67.97.86-.35-10.21,1.51-20.84.09-30.95-4.03.83-10.18,8.81-13.8,11.5-10.33,7.72-23.08,14.2-35.53,17.59-52.43,14.29-135.32,3.8-146.29-61.72-1.63-9.74-2.22-19.49-.98-29.32ZM2248.82,446.43c-1.22,5.05-1.76,10.04-1.14,15.23,4.43,36.85,53.29,40.18,81.07,31.44,34.71-10.92,42.8-39.95,41.73-72.91-10.84-1.08-21.66-1.15-32.53-1.19-30.35-.13-75.02-6.76-89.13,27.43Z"/>
    <path class="cls-7" d="M2494.81,372.99c3.3-19.97,8.8-39.65,19.76-56.9,33.71-53.05,105.59-74.62,163.85-52.04,19.75,7.66,32.96,19.25,47.6,33.97,2.67-10.19-.81-26.65-1.04-37.33,23.51-2.35,47.96-.54,71.62-1.03-2.59,23.98-.34,49.4-.34,73.54,0,48.19-.07,96.38-.29,144.57-.25,52.77-6.72,106.95-54.16,139.17-21.83,14.83-46.17,20.47-71.57,25.51-23.35,4.63-48.29,1.65-71.51-2.25-32.54-5.46-62.19-18.56-88.48-38.28,4.06-13.31,16.22-26.26,22.29-39.09.77-1.62,4.06-11.57,5.71-11.7,2.7-.21,12.39,8.89,15.21,10.52,12.83,7.41,27.1,12.64,41.34,16.56,44.25,12.17,101.72,9.08,122.97-38.1,3.19-7.09,4.69-15.03,5.56-22.72,1.21-10.75,2.62-22.66,1.51-33.43-7.44,4.23-13.67,13.02-20.79,18.31-16.77,12.47-36.56,19.9-57.19,22.65-15.01,2-30.97,1.91-45.83-1.2-17.81-3.72-36.03-9.99-51.2-20.24-42.12-28.47-61.28-80.94-55.03-130.48ZM2566.2,382.88c-1.12,10.54-.05,21.45,2.73,31.67,15.06,55.15,87.98,66.56,128.88,33.73,14.3-11.47,22.61-31.17,24.53-48.99,1.09-10.07.26-20.28-2.72-29.98-3.6-11.74-10.11-24.17-19.08-32.71-45.14-43.07-127.57-17.41-134.35,46.28Z"/>
    <path class="cls-3" d="M2851.14,377.86c6.43-30.58,16.95-59.25,40.04-81.53,51-49.21,149.52-56.48,203.12-6.93,25.39,23.47,41.94,54.91,45.64,89.49,1.59,14.82-2.52,31.74.33,46.07-52.03.54-104.1.17-156.14.66-13.92.13-27.84.5-41.76.64-6.88.07-14.74-.73-20.92,2.57,4.57,14.2,11.88,28.59,23.48,38.38,37.69,31.79,102.58,26.46,135.22-9.93,13.74,12.62,25.82,27.32,39.31,40.28.07,3.42-2.43,4.54-4.74,6.82-6.05,5.99-11.73,11.63-18.81,16.45-27.82,18.95-61.4,25.76-94.62,25.16-73.58-1.34-139.83-45.44-150.43-121.59-2.11-15.17-2.14-31.41.28-46.55ZM2920.1,377.91c-.79,3.16-.48,1.7-.97,4.4,34.75-.57,69.56-.33,104.33-.34,16.55,0,34.03-1.78,50.48-.31-3.15-19.44-11.55-39.58-26.85-52.64-29.35-25.04-79.33-18.98-105.59,7.14-11.86,11.8-17.7,25.79-21.4,41.76Z"/>
  </g>
</svg>